<svg width="244" height="126" viewBox="0 0 244 126" fill="none" xmlns="http://www.w3.org/2000/svg">
<g id="right_monogram">
<g id="Vector 10" filter="url(#filter0_d_16_47)">
<path d="M51.3814 29.5347C32.6574 42.5057 19.8279 41.4248 15.3203 32.0568C11.3562 22.2207 17.0579 14.09 25.3758 14.7622C32.1611 15.1837 34.0443 21.9683 32.3106 26.292" stroke="#F6C89F" stroke-width="2" stroke-linecap="round"/>
</g>
<path id="Vector 9" d="M55.29 26.9524C33.6364 42.2933 19.2437 38.7599 16.9598 31.2486C14.4665 24.0006 18.1638 16.8501 25.0302 17.2694C31.8966 17.6887 34.0269 21.8077 32.2725 26.1091" stroke="#F6C89F" stroke-width="2" stroke-linecap="round"/>
<g id="Vector 8" filter="url(#filter1_d_16_47)">
<path d="M199.504 13.0195C204.572 18.6823 219.993 20.8131 223.939 20.8131C227.886 20.8131 236.981 18.6207 238.41 12.724C240.164 5.48644 231.238 3.8167 228.695 8.92348C228.188 9.94301 228.335 11.613 229.201 13.1498" stroke="#F6C89F" stroke-width="2" stroke-linecap="round"/>
</g>
<path id="Vector 7" d="M199.504 13.0196C204.152 17.6505 213.065 19.2722 219.723 19.8233C226.38 20.3745 233.043 18.1774 235.755 13.3971C238.839 7.96277 230.683 4.50376 228.763 8.89237C228.078 10.4587 228.398 12.5127 229.201 13.1498" stroke="#F6C89F" stroke-width="2" stroke-linecap="round"/>
<g id="Vector 6" filter="url(#filter2_d_16_47)">
<path d="M115.187 60.4069C130.855 25.5864 149.391 19.1102 170.002 17.8329C193.294 15.2785 231.833 25.0705 227.447 66.3673C223.062 107.664 159.433 92.7435 168.234 61.8908C170.195 50.3712 183.106 43.2093 196.053 45.8836C203.636 47.45 209.319 52.4603 209.319 61.8908C209.21 74.3772 197.533 77.501 193.294 67.6942" stroke="#F6C89F" stroke-width="2" stroke-linecap="round"/>
</g>
<path id="Vector 5" d="M115.187 60.4069C130.569 27.0428 147.336 16.2688 173.51 16.13C193.525 16.0238 230.517 20.3874 230.517 61.2584C230.517 102.129 165.672 103.254 167.338 62.7966C170.319 48.7197 181.923 41.0598 196.001 43.3986C207.49 45.3072 212.596 53.5074 211.222 63.8129C209.691 75.304 196.585 76.7732 193.788 67.7956" stroke="#F6C89F" stroke-width="2" stroke-linecap="round"/>
<g id="Vector 4" filter="url(#filter3_d_16_47)">
<path d="M61.0668 93.3218C68.8045 95.7099 81.7819 91.9792 88.4114 87.8841C95.041 83.789 97.4164 77.9292 96.1958 72.9583C94.5498 66.255 84.4553 68.6137 84.4555 73.9767C84.4555 75.4474 84.8075 76.9042 87.862 77.9775" stroke="#F6C89F" stroke-width="2" stroke-linecap="round"/>
</g>
<path id="Vector 3" d="M61.1057 93.4353C68.7034 95.346 78.4334 92.7212 84.2647 89.1719C90.096 85.6226 94.4311 80.0294 93.8641 74.6484C93.1457 67.8316 82.9687 69.595 84.5027 74.7454C85.0502 76.5836 85.4063 77.2801 88.2818 78.2096" stroke="#F6C89F" stroke-width="2" stroke-linecap="round"/>
<g id="Vector 2" filter="url(#filter4_d_16_47)">
<path d="M5.34628 53.0364C18.8461 81.7562 39.6956 95.4384 64.4102 97.3756C89.1247 99.3128 108.104 86.0187 112.22 63.1557C116.335 40.2927 103.691 22.0974 81.3889 20.7522C66.1636 19.7622 50.6293 24.4028 45.3828 43.3512C42.1755 54.935 52.9619 71.3508 72.6617 69.3475C82.6512 68.3316 88.0612 57.7148 85.4124 50.1457C83.5897 44.9375 74.8332 41.7118 72.6617 41.2901" stroke="#F6C89F" stroke-width="2" stroke-linecap="round"/>
</g>
<path id="Vector 1" d="M5.34628 52.8597C19.188 83.0341 39.3654 96.2392 65.568 98.3438C91.7706 100.448 111.491 84.522 114.788 61.9532C118.085 39.3843 106.102 20.2053 83.5191 18.5185C66.9263 16.7034 52.9622 24.0166 44.5888 41.2902C38.217 54.4346 53.0122 76.8089 75.7202 71.0504C84.5489 68.8116 87.7919 61.2024 87.9987 54.8723C88.2056 48.5423 80.0646 41.3927 73.0891 41.2902" stroke="#F6C89F" stroke-width="2" stroke-linecap="round"/>
<g id="Vector 12" filter="url(#filter5_d_16_47)">
<path d="M17.0593 66.0627C28.0894 68.0839 41.2793 84.103 44.2822 90.8466C47.2852 97.5903 48.1608 108.059 41.1148 114.129C33.0515 121.076 22.8254 111.065 29.015 105.584C29.5064 105.148 31.8975 102.755 35.8477 103.598" stroke="#F6C89F" stroke-width="2" stroke-linecap="round"/>
</g>
<path id="Vector 11" d="M17.0594 66.0625C27.5699 68.672 36.756 78.4701 40.5961 86.858C44.4361 95.2459 45.7951 105.128 40.5961 111.602C34.0099 119.803 23.3225 111.58 29.015 105.584C30.0423 104.501 30.4625 103.869 36.0637 103.479" stroke="#F6C89F" stroke-width="2" stroke-linecap="round"/>
<g id="Vector 13" filter="url(#filter6_d_16_47)">
<path d="M118.803 72.8449C118.504 62.0709 132.644 42.0992 138.867 37.8427C145.089 33.5862 157.453 29.0199 165.329 34.0881C175.381 40.5572 166.302 52.6415 158.162 48.4862C155.092 46.9193 155.092 43.3773 155.092 43.3773" stroke="#F6C89F" stroke-width="2" stroke-linecap="round"/>
</g>
<path id="Vector 14" d="M118.803 72.8449C119.214 62.4324 128.643 46.6423 136.36 41.2496C144.077 35.857 157.062 31.1466 164.012 35.7731C170.9 40.3584 166.527 48.7927 160.793 48.0605C158.569 47.7765 155.759 46.6628 155.092 43.3773" stroke="#F6C89F" stroke-width="2" stroke-linecap="round"/>
</g>
<defs>
<filter id="filter0_d_16_47" x="9.03232" y="13.7233" width="47.3492" height="34.4583" filterUnits="userSpaceOnUse" color-interpolation-filters="sRGB">
<feFlood flood-opacity="0" result="BackgroundImageFix"/>
<feColorMatrix in="SourceAlpha" type="matrix" values="0 0 0 0 0 0 0 0 0 0 0 0 0 0 0 0 0 0 127 0" result="hardAlpha"/>
<feOffset dy="4"/>
<feGaussianBlur stdDeviation="2"/>
<feComposite in2="hardAlpha" operator="out"/>
<feColorMatrix type="matrix" values="0 0 0 0 0 0 0 0 0 0 0 0 0 0 0 0 0 0 0.25 0"/>
<feBlend mode="normal" in2="BackgroundImageFix" result="effect1_dropShadow_16_47"/>
<feBlend mode="normal" in="SourceGraphic" in2="effect1_dropShadow_16_47" result="shape"/>
</filter>
<filter id="filter1_d_16_47" x="194.459" y="5.0193" width="49.2225" height="24.7467" filterUnits="userSpaceOnUse" color-interpolation-filters="sRGB">
<feFlood flood-opacity="0" result="BackgroundImageFix"/>
<feColorMatrix in="SourceAlpha" type="matrix" values="0 0 0 0 0 0 0 0 0 0 0 0 0 0 0 0 0 0 127 0" result="hardAlpha"/>
<feOffset dy="4"/>
<feGaussianBlur stdDeviation="2"/>
<feComposite in2="hardAlpha" operator="out"/>
<feColorMatrix type="matrix" values="0 0 0 0 0 0 0 0 0 0 0 0 0 0 0 0 0 0 0.25 0"/>
<feBlend mode="normal" in2="BackgroundImageFix" result="effect1_dropShadow_16_47"/>
<feBlend mode="normal" in="SourceGraphic" in2="effect1_dropShadow_16_47" result="shape"/>
</filter>
<filter id="filter2_d_16_47" x="110.187" y="16.4557" width="122.605" height="84.2066" filterUnits="userSpaceOnUse" color-interpolation-filters="sRGB">
<feFlood flood-opacity="0" result="BackgroundImageFix"/>
<feColorMatrix in="SourceAlpha" type="matrix" values="0 0 0 0 0 0 0 0 0 0 0 0 0 0 0 0 0 0 127 0" result="hardAlpha"/>
<feOffset dy="4"/>
<feGaussianBlur stdDeviation="2"/>
<feComposite in2="hardAlpha" operator="out"/>
<feColorMatrix type="matrix" values="0 0 0 0 0 0 0 0 0 0 0 0 0 0 0 0 0 0 0.25 0"/>
<feBlend mode="normal" in2="BackgroundImageFix" result="effect1_dropShadow_16_47"/>
<feBlend mode="normal" in="SourceGraphic" in2="effect1_dropShadow_16_47" result="shape"/>
</filter>
<filter id="filter3_d_16_47" x="56.0613" y="67.8614" width="45.4489" height="35.2042" filterUnits="userSpaceOnUse" color-interpolation-filters="sRGB">
<feFlood flood-opacity="0" result="BackgroundImageFix"/>
<feColorMatrix in="SourceAlpha" type="matrix" values="0 0 0 0 0 0 0 0 0 0 0 0 0 0 0 0 0 0 127 0" result="hardAlpha"/>
<feOffset dy="4"/>
<feGaussianBlur stdDeviation="2"/>
<feComposite in2="hardAlpha" operator="out"/>
<feColorMatrix type="matrix" values="0 0 0 0 0 0 0 0 0 0 0 0 0 0 0 0 0 0 0.25 0"/>
<feBlend mode="normal" in2="BackgroundImageFix" result="effect1_dropShadow_16_47"/>
<feBlend mode="normal" in="SourceGraphic" in2="effect1_dropShadow_16_47" result="shape"/>
</filter>
<filter id="filter4_d_16_47" x="0.346039" y="19.627" width="117.645" height="86.9348" filterUnits="userSpaceOnUse" color-interpolation-filters="sRGB">
<feFlood flood-opacity="0" result="BackgroundImageFix"/>
<feColorMatrix in="SourceAlpha" type="matrix" values="0 0 0 0 0 0 0 0 0 0 0 0 0 0 0 0 0 0 127 0" result="hardAlpha"/>
<feOffset dy="4"/>
<feGaussianBlur stdDeviation="2"/>
<feComposite in2="hardAlpha" operator="out"/>
<feColorMatrix type="matrix" values="0 0 0 0 0 0 0 0 0 0 0 0 0 0 0 0 0 0 0.25 0"/>
<feBlend mode="normal" in2="BackgroundImageFix" result="effect1_dropShadow_16_47"/>
<feBlend mode="normal" in="SourceGraphic" in2="effect1_dropShadow_16_47" result="shape"/>
</filter>
<filter id="filter5_d_16_47" x="12.0603" y="65.0613" width="39.4556" height="60.438" filterUnits="userSpaceOnUse" color-interpolation-filters="sRGB">
<feFlood flood-opacity="0" result="BackgroundImageFix"/>
<feColorMatrix in="SourceAlpha" type="matrix" values="0 0 0 0 0 0 0 0 0 0 0 0 0 0 0 0 0 0 127 0" result="hardAlpha"/>
<feOffset dy="4"/>
<feGaussianBlur stdDeviation="2"/>
<feComposite in2="hardAlpha" operator="out"/>
<feColorMatrix type="matrix" values="0 0 0 0 0 0 0 0 0 0 0 0 0 0 0 0 0 0 0.25 0"/>
<feBlend mode="normal" in2="BackgroundImageFix" result="effect1_dropShadow_16_47"/>
<feBlend mode="normal" in="SourceGraphic" in2="effect1_dropShadow_16_47" result="shape"/>
</filter>
<filter id="filter6_d_16_47" x="113.76" y="30.8967" width="61.04" height="50.9076" filterUnits="userSpaceOnUse" color-interpolation-filters="sRGB">
<feFlood flood-opacity="0" result="BackgroundImageFix"/>
<feColorMatrix in="SourceAlpha" type="matrix" values="0 0 0 0 0 0 0 0 0 0 0 0 0 0 0 0 0 0 127 0" result="hardAlpha"/>
<feOffset dy="4"/>
<feGaussianBlur stdDeviation="2"/>
<feComposite in2="hardAlpha" operator="out"/>
<feColorMatrix type="matrix" values="0 0 0 0 0 0 0 0 0 0 0 0 0 0 0 0 0 0 0.25 0"/>
<feBlend mode="normal" in2="BackgroundImageFix" result="effect1_dropShadow_16_47"/>
<feBlend mode="normal" in="SourceGraphic" in2="effect1_dropShadow_16_47" result="shape"/>
</filter>
</defs>
</svg>
