<svg width="244" height="126" fill="none" xmlns="http://www.w3.org/2000/svg"><g filter="url(#a)"><path d="M51.381 29.535c-18.724 12.97-31.553 11.89-36.06 2.522-3.965-9.836 1.737-17.967 10.055-17.295 6.785.422 8.668 7.206 6.935 11.53" stroke="#F6C89F" stroke-width="2" stroke-linecap="round"/></g><path d="M55.29 26.952C33.636 42.293 19.244 38.76 16.96 31.25 14.466 24 18.164 16.85 25.03 17.269c6.867.42 8.997 4.539 7.242 8.84" stroke="#F6C89F" stroke-width="2" stroke-linecap="round"/><g filter="url(#b)"><path d="M199.504 13.02c5.068 5.662 20.489 7.793 24.435 7.793 3.947 0 13.042-2.192 14.471-8.089 1.754-7.238-7.172-8.907-9.715-3.8-.507 1.019-.36 2.689.506 4.226" stroke="#F6C89F" stroke-width="2" stroke-linecap="round"/></g><path d="M199.504 13.02c4.648 4.63 13.561 6.252 20.219 6.803 6.657.552 13.32-1.646 16.032-6.426 3.084-5.434-5.072-8.893-6.992-4.505-.685 1.567-.365 3.62.438 4.258" stroke="#F6C89F" stroke-width="2" stroke-linecap="round"/><g filter="url(#c)"><path d="M115.187 60.407c15.668-34.82 34.204-41.297 54.815-42.574 23.292-2.554 61.831 7.238 57.445 48.534-4.385 41.297-68.014 26.376-59.213-4.476 1.961-11.52 14.872-18.682 27.819-16.007 7.583 1.566 13.266 6.576 13.266 16.007-.109 12.486-11.786 15.61-16.025 5.803" stroke="#F6C89F" stroke-width="2" stroke-linecap="round"/></g><path d="M115.187 60.407c15.382-33.364 32.149-44.138 58.323-44.277 20.015-.106 57.007 4.257 57.007 45.128s-64.845 41.996-63.179 1.539c2.981-14.077 14.585-21.737 28.663-19.398 11.489 1.908 16.595 10.108 15.221 20.414-1.531 11.491-14.637 12.96-17.434 3.983" stroke="#F6C89F" stroke-width="2" stroke-linecap="round"/><g filter="url(#d)"><path d="M61.067 93.322c7.738 2.388 20.715-1.343 27.344-5.438 6.63-4.095 9.005-9.955 7.785-14.926-1.646-6.703-11.74-4.344-11.74 1.019 0 1.47.352 2.927 3.406 4" stroke="#F6C89F" stroke-width="2" stroke-linecap="round"/></g><path d="M61.106 93.435c7.597 1.911 17.327-.714 23.159-4.263 5.831-3.55 10.166-9.143 9.6-14.524-.72-6.816-10.896-5.053-9.362.097.547 1.839.903 2.535 3.779 3.465" stroke="#F6C89F" stroke-width="2" stroke-linecap="round"/><g filter="url(#e)"><path d="M5.346 53.036c13.5 28.72 34.35 42.402 59.064 44.34 24.715 1.937 43.694-11.357 47.81-34.22 4.115-22.863-8.529-41.059-30.831-42.404-15.225-.99-30.76 3.65-36.006 22.6-3.208 11.583 7.579 27.999 27.279 25.995 9.99-1.015 15.4-11.632 12.75-19.201-1.822-5.209-10.579-8.434-12.75-8.856" stroke="#F6C89F" stroke-width="2" stroke-linecap="round"/></g><path d="M5.346 52.86c13.842 30.174 34.02 43.38 60.222 45.484 26.203 2.104 45.923-13.822 49.22-36.39 3.297-22.57-8.686-41.749-31.269-43.436-16.593-1.815-30.557 5.499-38.93 22.772-6.372 13.145 8.423 35.519 31.131 29.76C84.55 68.812 87.792 61.202 88 54.872c.207-6.33-7.934-13.48-14.91-13.582" stroke="#F6C89F" stroke-width="2" stroke-linecap="round"/><g filter="url(#f)"><path d="M17.06 66.063c11.03 2.02 24.22 18.04 27.222 24.784 3.003 6.743 3.879 17.212-3.167 23.282-8.064 6.947-18.29-3.064-12.1-8.545.491-.436 2.883-2.829 6.833-1.986" stroke="#F6C89F" stroke-width="2" stroke-linecap="round"/></g><path d="M17.06 66.063c10.51 2.609 19.696 12.407 23.536 20.795 3.84 8.388 5.2 18.27 0 24.744-6.586 8.201-17.273-.022-11.581-6.018 1.027-1.083 1.447-1.715 7.049-2.105" stroke="#F6C89F" stroke-width="2" stroke-linecap="round"/><g filter="url(#g)"><path d="M118.803 72.845c-.299-10.774 13.841-30.746 20.064-35.002 6.222-4.257 18.586-8.823 26.462-3.755 10.052 6.47.973 18.553-7.167 14.398-3.07-1.567-3.07-5.109-3.07-5.109" stroke="#F6C89F" stroke-width="2" stroke-linecap="round"/></g><path d="M118.803 72.845c.411-10.413 9.84-26.203 17.557-31.595 7.717-5.393 20.702-10.103 27.652-5.477 6.888 4.585 2.515 13.02-3.219 12.287-2.224-.284-5.034-1.397-5.701-4.683" stroke="#F6C89F" stroke-width="2" stroke-linecap="round"/><defs><filter id="a" x="9.032" y="13.723" width="47.349" height="34.458" filterUnits="userSpaceOnUse" color-interpolation-filters="sRGB"><feFlood flood-opacity="0" result="BackgroundImageFix"/><feColorMatrix in="SourceAlpha" values="0 0 0 0 0 0 0 0 0 0 0 0 0 0 0 0 0 0 127 0" result="hardAlpha"/><feOffset dy="4"/><feGaussianBlur stdDeviation="2"/><feComposite in2="hardAlpha" operator="out"/><feColorMatrix values="0 0 0 0 0 0 0 0 0 0 0 0 0 0 0 0 0 0 0.25 0"/><feBlend in2="BackgroundImageFix" result="effect1_dropShadow_16_47"/><feBlend in="SourceGraphic" in2="effect1_dropShadow_16_47" result="shape"/></filter><filter id="b" x="194.459" y="5.019" width="49.222" height="24.747" filterUnits="userSpaceOnUse" color-interpolation-filters="sRGB"><feFlood flood-opacity="0" result="BackgroundImageFix"/><feColorMatrix in="SourceAlpha" values="0 0 0 0 0 0 0 0 0 0 0 0 0 0 0 0 0 0 127 0" result="hardAlpha"/><feOffset dy="4"/><feGaussianBlur stdDeviation="2"/><feComposite in2="hardAlpha" operator="out"/><feColorMatrix values="0 0 0 0 0 0 0 0 0 0 0 0 0 0 0 0 0 0 0.25 0"/><feBlend in2="BackgroundImageFix" result="effect1_dropShadow_16_47"/><feBlend in="SourceGraphic" in2="effect1_dropShadow_16_47" result="shape"/></filter><filter id="c" x="110.187" y="16.456" width="122.605" height="84.207" filterUnits="userSpaceOnUse" color-interpolation-filters="sRGB"><feFlood flood-opacity="0" result="BackgroundImageFix"/><feColorMatrix in="SourceAlpha" values="0 0 0 0 0 0 0 0 0 0 0 0 0 0 0 0 0 0 127 0" result="hardAlpha"/><feOffset dy="4"/><feGaussianBlur stdDeviation="2"/><feComposite in2="hardAlpha" operator="out"/><feColorMatrix values="0 0 0 0 0 0 0 0 0 0 0 0 0 0 0 0 0 0 0.25 0"/><feBlend in2="BackgroundImageFix" result="effect1_dropShadow_16_47"/><feBlend in="SourceGraphic" in2="effect1_dropShadow_16_47" result="shape"/></filter><filter id="d" x="56.061" y="67.861" width="45.449" height="35.204" filterUnits="userSpaceOnUse" color-interpolation-filters="sRGB"><feFlood flood-opacity="0" result="BackgroundImageFix"/><feColorMatrix in="SourceAlpha" values="0 0 0 0 0 0 0 0 0 0 0 0 0 0 0 0 0 0 127 0" result="hardAlpha"/><feOffset dy="4"/><feGaussianBlur stdDeviation="2"/><feComposite in2="hardAlpha" operator="out"/><feColorMatrix values="0 0 0 0 0 0 0 0 0 0 0 0 0 0 0 0 0 0 0.25 0"/><feBlend in2="BackgroundImageFix" result="effect1_dropShadow_16_47"/><feBlend in="SourceGraphic" in2="effect1_dropShadow_16_47" result="shape"/></filter><filter id="e" x=".346" y="19.627" width="117.645" height="86.935" filterUnits="userSpaceOnUse" color-interpolation-filters="sRGB"><feFlood flood-opacity="0" result="BackgroundImageFix"/><feColorMatrix in="SourceAlpha" values="0 0 0 0 0 0 0 0 0 0 0 0 0 0 0 0 0 0 127 0" result="hardAlpha"/><feOffset dy="4"/><feGaussianBlur stdDeviation="2"/><feComposite in2="hardAlpha" operator="out"/><feColorMatrix values="0 0 0 0 0 0 0 0 0 0 0 0 0 0 0 0 0 0 0.25 0"/><feBlend in2="BackgroundImageFix" result="effect1_dropShadow_16_47"/><feBlend in="SourceGraphic" in2="effect1_dropShadow_16_47" result="shape"/></filter><filter id="f" x="12.06" y="65.061" width="39.456" height="60.438" filterUnits="userSpaceOnUse" color-interpolation-filters="sRGB"><feFlood flood-opacity="0" result="BackgroundImageFix"/><feColorMatrix in="SourceAlpha" values="0 0 0 0 0 0 0 0 0 0 0 0 0 0 0 0 0 0 127 0" result="hardAlpha"/><feOffset dy="4"/><feGaussianBlur stdDeviation="2"/><feComposite in2="hardAlpha" operator="out"/><feColorMatrix values="0 0 0 0 0 0 0 0 0 0 0 0 0 0 0 0 0 0 0.25 0"/><feBlend in2="BackgroundImageFix" result="effect1_dropShadow_16_47"/><feBlend in="SourceGraphic" in2="effect1_dropShadow_16_47" result="shape"/></filter><filter id="g" x="113.76" y="30.897" width="61.04" height="50.908" filterUnits="userSpaceOnUse" color-interpolation-filters="sRGB"><feFlood flood-opacity="0" result="BackgroundImageFix"/><feColorMatrix in="SourceAlpha" values="0 0 0 0 0 0 0 0 0 0 0 0 0 0 0 0 0 0 127 0" result="hardAlpha"/><feOffset dy="4"/><feGaussianBlur stdDeviation="2"/><feComposite in2="hardAlpha" operator="out"/><feColorMatrix values="0 0 0 0 0 0 0 0 0 0 0 0 0 0 0 0 0 0 0.25 0"/><feBlend in2="BackgroundImageFix" result="effect1_dropShadow_16_47"/><feBlend in="SourceGraphic" in2="effect1_dropShadow_16_47" result="shape"/></filter></defs></svg>